<svg width="100" height="100" viewBox="0 0 100 100" fill="none" xmlns="http://www.w3.org/2000/svg">
<g clip-path="url(#clip0_7_705)">
<rect width="100" height="100" fill="#911717"/>
<g opacity="0.2">
<path fill-rule="evenodd" clip-rule="evenodd" d="M45.6794 0.190612C45.7898 -0.0887029 46.673 -0.0488268 46.7972 0.230488C46.8386 0.363784 47.0042 1.30802 47.1422 2.33197C47.294 3.35613 47.5287 5.03203 47.6805 6.05617C47.8323 7.08031 48.0392 8.42376 48.122 9.03558C48.2738 10.1527 48.274 10.1527 48.7155 9.47447C49.5022 8.23751 50.758 7.6124 51.7241 7.97152C52.2623 8.17105 52.98 8.91584 53.3388 9.64736C53.7665 10.5119 53.7528 11.8553 53.3388 12.7464C53.1732 13.0922 53.049 13.5179 53.0628 13.7041C53.0904 14.2095 53.4768 15.433 53.6148 15.4332C53.8909 15.4329 55.119 13.1187 56.085 10.7779C56.9267 8.70332 58.4583 4.74052 58.4588 4.59309C58.4588 4.49999 60.0732 0.869318 60.3356 0.363495C60.5012 0.0708855 60.6255 0.00435274 61.0395 0.00435003C61.5087 0.00435052 61.5226 0.0177095 61.4536 0.390122C61.3983 0.603174 61.0256 1.61394 60.5979 2.62461C60.17 3.6355 59.3282 5.7769 58.7348 7.38624C57.5893 10.4586 56.5543 13.0124 56.0989 13.9036C55.7677 14.542 55.6434 14.7548 55.0223 15.6725C54.7741 16.058 54.581 16.3904 54.6083 16.4041C55.1879 16.71 55.9606 17.0291 56.1264 17.0292C56.2506 17.0292 56.7889 16.8431 57.2995 16.617C58.9969 15.8855 59.342 15.7391 59.9768 15.5263C60.5841 15.3135 62.185 14.7016 63.703 14.0765C64.1308 13.9036 64.6553 13.6243 64.8761 13.4647C65.5937 12.9327 68.6575 10.1262 70.7828 8.05127C71.9144 6.94732 74.233 4.69952 75.9443 3.02363C78.7182 0.336953 79.1046 0.00436485 79.5048 0.00435003C79.7394 0.00435003 79.9877 0.0442132 80.0292 0.0841023C80.2361 0.283778 77.8211 3.02371 74.9092 5.92316C72.1353 8.67637 70.5206 10.4321 69.458 11.842C67.305 14.7149 61.2466 20.1283 59.1351 21.0461C58.4865 21.3254 58.0586 22.4027 58.3345 23.0278C58.8314 24.1982 62.5715 22.8948 68.8093 19.3569C70.7414 18.2662 71.7074 17.6277 72.7839 16.71C73.5705 16.045 74.5642 15.1938 75.0059 14.8346C75.4475 14.4622 76.7585 13.3583 77.9315 12.3608C79.1046 11.3632 80.9539 9.78037 82.058 8.84931C84.2385 7.00053 85.4116 5.9364 89.1377 2.43835C91.5252 0.203834 92.0635 -0.168507 92.3258 0.257115C92.4217 0.404012 91.0695 1.97324 89.331 3.72855C86.0464 7.06698 85.1079 7.93163 82.541 10.0331C77.7523 13.9567 76.6481 14.9144 75.1853 16.3775C74.4124 17.1622 73.4739 18.0002 73.1013 18.2529C72.7286 18.4924 71.9144 19.0377 71.2934 19.4632C69.8581 20.4475 66.0767 22.4427 63.9928 23.3072C62.3367 23.9988 60.5702 24.5175 59.3282 24.6771C58.8176 24.7436 58.6106 24.8235 58.5554 25.0097C58.4865 25.2889 58.7902 25.3422 60.9429 25.4752C61.6605 25.5151 62.9026 25.6348 63.703 25.7412C67.3186 26.2067 74.798 26.5658 75.268 26.2999C75.3232 26.26 76.0685 26.1535 76.8965 26.0737C77.7245 26.0072 79.3392 25.7943 80.4709 25.6214C82.7756 25.2623 86.7502 24.8767 88.1303 24.8767C88.6271 24.8767 89.9244 24.6905 91.0284 24.4644C92.1325 24.2383 93.6782 23.9456 94.4786 23.8126C95.279 23.6796 96.3003 23.4668 96.7557 23.3471C98.0667 22.988 99.5847 22.7619 99.5849 22.9214C99.5849 23.0011 99.6677 22.9613 99.7643 22.8417C99.9023 22.6688 101.268 22.2166 101.669 22.2165C101.752 22.2165 101.986 23.081 102 23.4535C102 23.52 101.765 23.653 101.489 23.7461C101.075 23.8791 100.937 23.8791 100.827 23.7461C100.717 23.6131 100.537 23.6131 100.096 23.7062C99.4883 23.8392 99.157 23.9191 99.0328 23.9324C98.9916 23.9457 99.0468 23.9989 99.1571 24.0654C99.3088 24.1584 99.2122 24.2249 98.8121 24.318C96.5902 24.8766 94.5476 25.3156 92.8915 25.5949C91.8289 25.7812 90.6834 25.9807 90.3384 26.0605C89.9932 26.1403 88.1992 26.2599 86.3362 26.3397C82.9136 26.4594 80.0569 26.7122 77.9178 27.0713C74.9506 27.5634 71.9282 27.6431 66.7392 27.3505C61.4259 27.0579 59.0108 26.9649 59.0108 27.0314C59.011 27.3908 59.9216 29.8246 60.2252 30.2502C61.3431 31.8728 61.633 32.1388 63.013 32.6974C65.2349 33.6019 66.063 33.9078 67.5672 34.3999C68.3677 34.6659 70.286 35.4242 71.8455 36.1025C75.6268 37.7518 75.9167 37.8581 77.9868 38.5099C81.4507 39.6138 83.9211 40.1458 89.9106 41.0503C92.1877 41.3828 92.4638 41.3961 95.4309 41.3163C97.1422 41.2764 98.95 41.17 99.4469 41.1035C101.048 40.8774 101.103 40.8907 101.103 41.5025C101.103 42.1276 101.089 42.1277 99.7919 42.2341C95.1687 42.6065 91.8841 42.5665 88.8893 42.1143C87.6059 41.9281 86.2672 41.7287 85.9222 41.6888C82.3754 41.2632 75.2542 39.0951 70.6724 37.0468C68.7541 36.1823 67.6638 35.77 66.6702 35.504C66.1458 35.3577 65.4695 35.1582 65.1659 35.0384C64.5172 34.799 64.4483 34.8522 64.7105 35.3443C65.1521 36.1557 66.1044 36.9936 67.4016 37.7385C68.8231 38.5498 69.2233 38.8158 69.2233 39.002C69.2232 39.0552 69.1267 39.1084 69.0163 39.1084C68.8091 39.1083 66.5597 38.0177 65.8559 37.5788C65.6627 37.4458 65.4971 37.3926 65.4971 37.4458C65.4974 37.5924 66.4357 38.8159 67.2498 39.7202C67.9399 40.4916 68.1607 40.9705 67.8432 40.9705C67.7603 40.9704 67.0289 40.3054 66.2009 39.5074C65.3868 38.6963 64.6694 38.0446 64.6277 38.0444C64.4069 38.0444 64.5725 38.5764 65.0004 39.2813C65.2626 39.6936 65.5662 40.1991 65.6628 40.3986C65.7732 40.6114 65.9388 40.904 66.0492 41.0503C66.1457 41.2099 66.1871 41.436 66.1319 41.569C66.0215 41.8482 65.8006 41.6353 64.4483 39.9331C63.9791 39.3346 63.4823 38.8691 63.1373 38.6961C62.5852 38.4301 62.5852 38.4301 63.4133 39.6006C65.0556 41.9015 66.7668 43.378 70.5344 45.7854C74.2744 48.1529 79.2426 50.148 82.5824 50.6003C83.1068 50.6668 83.2863 50.7066 83.7831 50.8928C83.9349 50.946 84.3765 51.0126 84.7491 51.0392C85.1355 51.0791 85.5082 51.1456 85.5772 51.1988C85.7292 51.3185 87.0815 51.5845 87.9233 51.6643C88.2269 51.7042 88.5029 51.7308 88.5443 51.7441C88.5857 51.7574 88.7789 51.7574 88.9997 51.7441C89.2067 51.7308 89.3724 51.7973 89.3724 51.8771C89.3724 51.9834 89.5933 52.0234 89.9658 52.0101C90.9731 51.9569 91.332 51.9968 91.2217 52.1563C91.1528 52.276 91.277 52.2893 91.6357 52.2228C92.243 52.1165 94.2024 52.3825 94.2026 52.582C94.2027 52.6617 94.4373 52.6751 94.7684 52.6352C95.0858 52.5953 95.4999 52.6219 95.7069 52.7017C95.9002 52.7815 96.2451 52.8747 96.4797 52.9013C96.7005 52.9412 97.1422 53.0475 97.4458 53.1539C97.7769 53.2603 98.0114 53.2869 98.0392 53.2071C98.0668 53.1273 98.1359 53.1007 98.1911 53.1406C98.2464 53.1673 98.619 53.2205 99.0191 53.2604C99.4055 53.3003 100.095 53.4067 100.565 53.4998C101.269 53.6328 101.379 53.6993 101.351 53.9387C101.31 54.178 101.227 54.2047 100.592 54.1781C100.192 54.1648 99.8609 54.2047 99.8609 54.2712C99.8608 54.351 99.7228 54.4042 99.5573 54.4042C99.2951 54.4042 99.2813 54.3776 99.4469 54.2712C99.5711 54.1914 99.5849 54.1382 99.4882 54.1382C99.1847 54.1382 99.1294 54.4442 99.3916 54.6304C99.6262 54.7899 99.5573 54.8032 98.8948 54.75C98.4808 54.7101 97.9564 54.617 97.7218 54.5505C97.3078 54.4308 97.3079 54.4308 97.846 54.4175C98.3014 54.4042 98.3566 54.3776 98.2048 54.2047C97.9978 53.9653 96.8939 53.9254 96.742 54.1514C96.7005 54.2312 96.4934 54.2712 96.2865 54.2313C94.051 53.7925 93.2644 53.5795 93.3746 53.4199C93.4158 53.3667 93.1123 53.3002 92.7122 53.2869C91.8842 53.2337 91.7461 53.1672 91.9945 52.8746C92.2015 52.6352 92.3119 52.6618 90.4627 52.6086C89.745 52.5953 88.9169 52.5022 88.6271 52.4091C88.2131 52.2761 88.0337 52.2761 87.7853 52.4091C87.3299 52.6485 86.8331 52.5287 86.7778 52.183C86.7226 51.8505 86.2396 51.7041 85.3011 51.7573C84.1697 51.8238 83.9487 51.7706 84.0315 51.4648C84.0729 51.2919 84.0453 51.212 83.9487 51.2519C83.8521 51.2785 83.7968 51.3983 83.8244 51.5047C83.8657 51.7573 83.4243 51.9435 83.3 51.7308C83.2172 51.6244 83.1758 51.6244 83.1068 51.7308C82.9823 51.9169 82.1962 51.9302 82.196 51.7441C82.196 51.6643 82.3064 51.6111 82.4306 51.6111C82.5962 51.611 82.5272 51.5046 82.196 51.212C81.92 50.9992 81.5473 50.8263 81.3403 50.813C80.6641 50.813 79.85 51.3317 80.5123 51.3583C80.6364 51.3583 80.6779 51.3982 80.5952 51.4248C80.5123 51.4647 80.2639 51.4116 80.0431 51.3318C79.8223 51.2387 79.5876 51.1855 79.5186 51.1988C79.4497 51.212 79.4635 51.1455 79.5462 51.0392C79.6428 50.9328 79.6843 50.7465 79.6291 50.6268C79.5049 50.3342 78.6629 50.3342 78.4835 50.6401C78.3732 50.8395 78.3041 50.8395 77.9591 50.6933C77.7521 50.6001 77.1449 50.3741 76.6067 50.1879C76.0823 50.0017 75.4612 49.749 75.2266 49.616C75.0058 49.4829 74.1916 49.1105 73.4188 48.778C71.9697 48.1529 68.8783 46.2243 66.5322 44.4819C65.1521 43.4578 64.8485 43.205 64.2827 42.5133C64.1309 42.3138 63.565 41.6887 63.0544 41.1434C62.2126 40.2522 61.1775 38.7626 60.1425 36.9803C59.5077 35.9029 57.5755 33.5487 56.5404 32.6043C55.9056 32.0191 55.9056 32.0192 55.809 33.4689C55.7538 34.2669 55.6573 35.4906 55.5883 36.1823C55.5193 36.8739 55.5192 37.8049 55.5744 38.2439C55.7676 39.7468 55.7124 40.8242 55.3674 42.1409C54.8153 44.2424 54.6911 45.7588 54.8843 48.3923C54.9947 50.0681 55.0086 50.946 54.8982 51.6509C54.8154 52.183 54.705 53.021 54.6636 53.5397C54.6084 54.0451 54.4152 55.0826 54.2358 55.8274C54.0564 56.5855 53.9045 57.357 53.9045 57.5565C53.9045 57.7694 53.7803 58.3812 53.6285 58.9264C53.3111 60.1235 53.2973 60.8418 53.5595 62.5176C53.6699 63.2093 53.7665 64.3399 53.7665 65.0049C53.7665 66.1221 53.7389 66.2418 53.5043 66.2418C53.3663 66.2418 53.2007 66.1088 53.1455 65.9359C53.0627 65.6965 53.0212 65.7763 52.9522 66.3083C52.8694 66.9733 52.8695 66.9734 52.3451 67C52.014 67 51.7931 66.9468 51.7378 66.8271C51.6826 66.6941 51.6136 66.6808 51.4204 66.8005C51.1306 66.9866 50.7304 66.7472 50.7304 66.4147C50.7304 66.3083 50.6337 65.8029 50.4957 65.2975C50.2887 64.4463 50.2888 64.353 50.5234 63.6216C50.827 62.7038 50.8959 61.2274 50.7027 59.8974C50.5648 59.0196 50.5787 58.8998 50.8546 58.3812C51.2686 57.623 51.3653 56.12 51.1307 53.9387C50.9098 51.7973 50.9236 51.1721 51.2134 50.1879C51.4204 49.4829 51.4204 49.0573 51.2962 46.344C51.2272 44.6683 51.0891 43.0855 51.0201 42.8326C50.8959 42.4734 50.4958 39.3479 50.4406 38.4167C50.4268 38.0444 50.0679 39.2148 49.9851 39.973C49.9299 40.4119 49.7367 41.3696 49.5573 42.1011C49.1847 43.644 49.0467 47.0489 49.3366 47.8869C49.7782 49.177 49.9299 50.4407 49.7643 51.5313C49.5435 52.9544 49.6264 53.952 50.0956 55.4018C50.5786 56.9047 50.6338 58.1151 50.2473 58.7934C50.0128 59.1924 49.9713 59.4718 50.0127 60.8284C50.0403 62.1584 49.9989 62.4777 49.7643 62.9832C49.6125 63.3024 49.4883 63.6349 49.4883 63.7147C49.4882 63.7945 49.3227 64.0074 49.1295 64.1802C48.5913 64.659 47.7356 64.6457 47.2526 64.1536C46.4936 63.3689 46.4383 62.8767 46.8799 61.3871C47.3767 59.7112 47.4181 59.3919 47.2939 56.9712C47.1697 54.5106 46.9352 53.5795 45.8174 50.946C45.6242 50.4672 45.5551 49.8287 45.4861 47.7539C45.4309 46.3175 45.3205 44.9476 45.2377 44.6947C45.1411 44.442 45.0031 43.4843 44.9341 42.5666C44.8513 41.6489 44.7271 40.4784 44.6443 39.973C44.5615 39.4542 44.4511 38.4833 44.4097 37.805C44.3131 36.568 44.313 36.5679 43.5954 37.1532C42.9329 37.6986 40.0624 39.6404 39.9106 39.6404C39.8814 39.6414 39.054 40.1332 38.0751 40.7311C36.2948 41.8085 34.3213 42.9656 34.2385 42.9656C34.2108 42.9657 33.8934 43.1386 33.5209 43.3514C33.1618 43.5643 31.1883 44.3889 29.146 45.1602C25.9307 46.3838 25.4199 46.5567 25.3094 46.3705C25.0471 45.9317 23.5982 46.1844 23.5154 46.6898C23.4601 47.0222 23.198 47.0488 23.198 46.7297C23.1979 46.3972 22.8943 46.3707 22.4527 46.6766C22.2319 46.8361 21.9697 46.9558 21.8593 46.9558C21.3073 46.9558 20.9347 47.2884 20.8381 47.8602C20.7553 48.3656 20.7138 48.4189 20.3551 48.4189C20.1067 48.4189 19.9549 48.3523 19.9548 48.2326C19.9547 48.0066 19.6512 47.8869 19.113 47.8869C18.8094 47.8869 18.7127 47.9534 18.7127 48.1396C18.7126 48.4588 18.3124 48.5918 17.4707 48.5785C16.8911 48.5785 16.8773 48.5919 17.1809 48.7382C17.4982 48.911 17.4982 48.9111 17.0429 49.0042C16.767 49.0574 16.5599 49.0307 16.5322 48.9509C16.5047 48.8844 16.4219 48.8445 16.3529 48.8977C16.2839 48.9375 16.2286 48.9242 16.2286 48.8578C16.2281 48.7514 13.2478 48.7514 12.6267 48.8578C12.4196 48.8977 11.9227 48.9642 11.5087 49.0174C10.9154 49.0839 10.7635 49.1637 10.7497 49.3632C10.7359 49.5095 10.8188 49.6159 10.943 49.616C11.0671 49.6159 11.1222 49.5361 11.0671 49.4164C11.0257 49.2968 11.0672 49.2169 11.1913 49.2169C11.3155 49.2169 11.357 49.2967 11.3156 49.4164C11.2466 49.5893 11.288 49.6026 11.6054 49.4829C11.9918 49.3366 12.461 49.2967 12.3368 49.4164C12.295 49.4564 11.8811 49.5894 11.4121 49.6957C10.5152 49.9218 9.79758 49.8553 9.96303 49.5893C10.0458 49.4696 10.0873 49.4697 10.1287 49.5893C10.1563 49.6824 10.2806 49.749 10.3909 49.749C10.5703 49.749 10.5703 49.709 10.4323 49.5495C10.2115 49.2967 10.0873 49.2968 9.81127 49.5761C9.61813 49.7489 9.52145 49.7622 9.3145 49.6426C9.17651 49.5495 8.83147 49.483 8.55546 49.4829C8.12767 49.4829 8.08624 49.5096 8.27945 49.6825C8.38985 49.7888 8.56928 49.882 8.69347 49.882C8.98325 49.882 9.09362 50.1081 8.84523 50.2012C8.73473 50.2411 8.3207 50.3076 7.92055 50.3475C7.21681 50.4273 7.203 50.4139 7.53416 50.2277C7.75495 50.0947 7.79637 50.0283 7.67217 50.015C7.5066 50.015 7.50659 49.9883 7.64454 49.8952C7.78254 49.8154 7.75496 49.7623 7.53416 49.7091C7.21677 49.6293 7.27197 49.35 7.61691 49.3499C7.72728 49.3499 7.81012 49.2568 7.81017 49.1372C7.81017 48.9909 7.89298 48.9509 8.08619 49.0174C8.23798 49.0573 8.52784 49.0174 8.73485 48.911C9.12128 48.7115 10.4462 48.4456 11.5226 48.3391C11.84 48.3125 12.4886 48.2194 12.9578 48.1529C13.427 48.0731 14.3379 47.9268 14.9865 47.8204C17.7742 47.3947 21.3624 46.5569 22.7149 46.0115C23.7223 45.6125 26.551 44.5619 26.6344 44.5617C26.7191 44.5608 31.4097 42.3935 32.9965 41.6089C33.6037 41.3163 35.5358 40.3719 37.2747 39.5207C40.573 37.9113 41.4563 37.3526 43.2917 35.6635C44.2302 34.8123 44.3821 34.5994 44.5201 34.0009C44.7271 33.1497 44.9341 31.8862 44.9893 31.1812C45.0583 30.4364 45.2101 29.7979 45.4171 29.3989C45.5137 29.2127 45.6517 28.7604 45.7207 28.4013C45.8035 28.029 45.9139 27.6299 45.9691 27.4835C46.0795 27.2442 46.0243 27.2442 44.8513 27.324C42.6019 27.4836 42.6708 27.457 42.2292 28.3082C41.9531 28.8402 41.125 29.7713 39.3448 31.5403C36.0879 34.7989 35.3839 35.5838 35.0803 36.3419C34.8181 37.0201 34.6388 37.2196 34.4318 37.0202C34.349 36.9404 34.3766 36.6743 34.5145 36.3285C34.8871 35.3177 34.7629 35.2911 33.8521 36.1556C33.383 36.6078 32.9137 36.9802 32.8171 36.9803C32.4997 36.9803 32.6515 36.5946 33.2725 35.903C34.2523 34.799 34.1419 34.7458 32.4858 35.5172C31.8651 35.7964 31.327 36.0091 31.299 35.9827C31.2576 35.9561 31.2714 35.7965 31.3128 35.6236C31.3818 35.3975 31.6716 35.198 32.3892 34.8788C32.9273 34.6395 33.3412 34.4134 33.3139 34.3867C33.2997 34.3734 32.7892 34.4665 32.1822 34.6128C31.368 34.8123 31.0643 34.8389 30.9401 34.7192C30.7746 34.5595 31.2714 34.0542 31.6164 34.0541C31.989 34.0541 33.6172 33.5089 33.8245 33.3094C34.1419 33.0034 34.0867 32.8969 33.5622 32.8038C33.0103 32.6974 32.4308 32.2984 32.5548 32.0989C32.5963 32.0324 33.3002 31.9792 34.1972 31.9925C35.7566 32.0058 35.7567 32.0057 36.4466 31.3407C36.833 30.9816 37.0401 30.729 36.9297 30.7822C36.8194 30.8354 36.8469 30.7688 37.0124 30.6358C37.178 30.5028 37.3713 30.2502 37.4679 30.0906C37.5507 29.9309 37.7025 29.8112 37.7853 29.8378C37.8819 29.8511 37.9509 29.7979 37.9647 29.7314C37.9647 29.6516 38.1303 29.3856 38.3235 29.1329C38.5167 28.8802 38.8066 28.428 38.9584 28.1221C39.2482 27.5768 39.2482 27.5767 36.1983 27.4969C32.5549 27.3905 24.9921 27.0447 24.509 26.9383C24.3158 26.9117 23.0185 26.7521 21.6109 26.6057C20.2032 26.4594 18.5609 26.2466 17.9537 26.1402C17.3464 26.0338 15.4558 25.7678 13.7445 25.5417C10.4738 25.1028 9.2041 24.8368 10.8601 24.9299C11.8951 24.9831 12.2264 24.8899 11.8814 24.6106C11.771 24.5176 11.6744 24.3314 11.6744 24.1984C11.6744 23.9191 11.1914 23.6796 10.6256 23.6796C10.4462 23.6796 10.2944 23.6263 10.2943 23.5598C10.2943 23.4801 10.1838 23.4269 10.0597 23.4402C9.92155 23.4402 9.30059 23.4002 8.66584 23.3603C7.79642 23.2938 7.42375 23.3072 7.12014 23.4535C6.8994 23.5598 6.69243 23.613 6.66474 23.5598C6.63716 23.52 6.63715 23.5599 6.66474 23.653C6.67854 23.7594 6.70611 23.9855 6.70612 24.1584C6.70613 24.411 6.77517 24.4776 7.09251 24.4776C7.29952 24.4776 7.56176 24.5441 7.67217 24.6106C7.94815 24.7835 7.38234 24.7835 6.18172 24.6106C5.67108 24.5308 4.20817 24.3447 2.91092 24.1984C0.150796 23.8792 -0.0976608 23.8525 -0.221867 23.8259C-0.277031 23.8257 -0.304661 23.5198 -0.29087 23.1608C-0.277074 22.8017 -0.304674 22.5358 -0.359874 22.5757C-0.42882 22.6023 -0.470239 22.7219 -0.470253 22.8283C-0.470287 22.948 -0.566909 23.0145 -0.704892 22.9879C-1.06365 22.9214 -1.0774 22.6288 -0.718638 22.4825C-0.415044 22.3495 -0.415085 22.3495 -0.773895 22.416C-1.17404 22.4958 -1.3396 22.1767 -0.980906 22.0436C-0.884313 21.9904 -0.898071 21.9638 -1.03603 21.9638C-1.16023 21.9505 -1.29827 22.0702 -1.33967 22.2165C-1.4501 22.6021 -1.82269 22.4159 -1.9607 21.8972C-2.11249 21.3653 -1.87785 21.3254 -0.304617 21.618C0.316409 21.7377 1.33765 21.8972 1.94487 21.9638C2.55208 22.0436 3.26972 22.1367 3.53195 22.1633C3.79417 22.1899 4.66362 22.3229 5.46405 22.4427C6.26447 22.5624 7.13391 22.682 7.39615 22.6953C8.79001 22.815 9.45246 22.8949 10.0183 23.0146C10.3633 23.0811 11.3846 23.2673 12.2954 23.4136C13.2062 23.5732 14.7657 23.8391 15.7456 24.0254C16.7392 24.1983 17.7742 24.3446 18.0641 24.3446C18.3539 24.3446 19.0025 24.3978 19.5131 24.4776C22.2871 24.8634 23.957 25.0363 27.2002 25.2757C36.6808 25.9673 40.6141 26.1002 40.4765 25.7545C40.4351 25.6613 40.5869 25.4087 40.8076 25.1959C41.0284 24.9964 41.2355 24.6505 41.2769 24.4244C41.3183 24.1983 41.3735 23.8658 41.4012 23.6796C41.4288 23.4934 41.5254 23.1875 41.6082 22.9747C41.6909 22.7753 41.7185 22.6157 41.6772 22.6155C41.6358 22.6155 41.7048 22.4824 41.8152 22.3229C42.0497 22.0037 42.0911 21.5781 41.9256 21.3121C41.8566 21.219 41.2493 21.0594 40.5455 20.953C39.8554 20.8465 38.7513 20.6071 38.0751 20.4342C37.4127 20.248 36.1154 19.9155 35.2046 19.6761C33.3967 19.2106 31.2576 18.5721 28.3732 17.6278C27.352 17.2953 26.1514 16.9362 25.7097 16.8165C23.0876 16.1648 17.5259 13.4114 13.5927 10.8444C11.9643 9.7671 8.79022 7.50607 8.56921 7.25323C8.50021 7.17343 7.76874 6.54824 6.9545 5.86991C6.14039 5.19168 5.4228 4.56657 5.36742 4.47333C5.29817 4.36669 4.3736 3.40916 3.29731 2.33197C2.20742 1.24167 1.32441 0.310777 1.32384 0.243737C1.32397 0.190543 1.75181 0.137359 2.27614 0.137357C3.10414 0.137359 3.25597 0.177291 3.42158 0.429998C3.65651 0.776116 6.63718 3.70194 7.87918 4.80585C9.28686 6.06941 15.7591 10.6447 16.1182 10.6449C16.1873 10.6449 16.4495 10.7912 16.6979 10.9774C16.9462 11.1636 17.1947 11.3099 17.2499 11.3099C17.3053 11.3101 17.6226 11.4829 17.9537 11.709C18.2848 11.9217 18.5885 12.1079 18.63 12.108C18.6719 12.1083 19.3203 12.4407 20.0791 12.8395C22.1215 13.9036 24.509 14.8745 26.0685 15.2469C26.8413 15.4331 27.8351 15.7258 28.2905 15.8987C28.7597 16.0583 29.6291 16.3775 30.2363 16.6036C30.8436 16.8164 31.782 17.1623 32.3064 17.3618C33.7969 17.9204 36.1016 18.6253 36.4329 18.6253C36.5848 18.6254 37.0264 18.7184 37.3989 18.8248C37.7713 18.9312 38.1162 18.9976 38.1441 18.9578C38.1855 18.9179 38.1579 18.8913 38.0751 18.8913C37.9363 18.8908 34.8043 16.9095 34.0315 16.3376C33.8383 16.1913 33.2587 15.7656 32.7205 15.3799C29.6015 13.1454 27.6555 11.709 26.9379 11.1104C26.4825 10.7514 25.9858 10.3523 25.8063 10.2459C24.7437 9.56756 21.9697 7.23998 19.9962 5.37788C19.4442 4.84588 18.5196 4.10103 17.9399 3.7153C16.4082 2.66465 13.607 0.390441 13.6065 0.177233C13.6065 0.0575496 13.8411 0.00435469 14.4483 0.00435003C15.2763 0.00435003 15.304 0.0176767 16.2286 0.762516C16.7392 1.18814 17.719 1.94626 18.3815 2.46498C19.0577 2.97041 20.3274 4.06102 21.1969 4.87235C22.0662 5.68361 22.9494 6.45503 23.1427 6.60145C23.3359 6.73448 24.2606 7.42616 25.1991 8.11778C26.1237 8.80941 27.0208 9.47445 27.1864 9.58085C27.3521 9.68734 28.1249 10.2592 28.9115 10.8444C29.6981 11.4296 30.471 12.0016 30.6366 12.108C30.7886 12.2145 31.7683 12.9061 32.7895 13.6376C33.8107 14.3824 35.1908 15.3666 35.8532 15.8454C37.1367 16.7632 39.8002 18.1066 41.4286 18.6652C42.4223 19.011 42.4224 19.011 42.7812 18.3593C43.1952 17.6145 43.6368 17.2421 44.3268 17.0292C44.5889 16.9495 44.7959 16.8297 44.7961 16.7632C44.7961 16.6967 44.4648 15.6593 44.0508 14.4622C43.6368 13.2653 43.2643 12.0817 43.209 11.8287C43.1676 11.576 42.7673 10.2991 42.3533 8.98232C41.5115 6.36211 41.5253 6.41522 40.9181 3.46253C40.6835 2.33203 40.4213 1.12165 40.3108 0.775765C40.2143 0.44338 40.1591 0.124197 40.2005 0.0841023C40.3248 -0.0355604 41.2079 -0.00891342 41.2079 0.0974809C41.208 0.164441 41.3598 0.762785 41.5529 1.4408C41.7323 2.10584 41.9531 3.26304 42.0359 3.99456C42.1463 4.96547 42.3533 5.79018 42.8087 7.02709C43.1537 7.95812 43.5263 9.00892 43.6368 9.38134C44.7269 12.9191 45.9415 16.3638 46.0934 16.3642C46.5764 16.3509 46.8662 16.1247 47.4182 15.3534C48.0254 14.4889 48.0254 14.4887 47.7218 12.9992C47.57 12.1746 47.3907 11.177 47.3355 10.7779C47.2941 10.3789 46.9766 8.58328 46.6315 6.78771C45.9554 3.15703 45.5691 0.470436 45.6794 0.190612ZM96.1347 53.7791C96.1347 53.5929 95.8449 53.5796 95.3067 53.7259C95.0031 53.819 95.0307 53.8322 95.555 53.8854C95.969 53.9253 96.1346 53.8987 96.1347 53.7791ZM60.1011 34.3202C59.7285 33.9078 59.7146 33.9078 59.9492 34.2537C60.0872 34.4665 60.3494 34.932 60.5012 35.2778C60.6668 35.6368 60.8187 35.9161 60.8602 35.9162C61.0394 35.916 60.4737 34.7325 60.1011 34.3202ZM55.6296 26.6057C55.4226 26.6058 55.2846 26.7122 55.2294 26.8984C54.912 28.0821 55.5054 29.4389 57.0924 31.128C57.6582 31.7265 57.6583 31.7264 57.3685 31.1679C57.2029 30.8619 56.9545 30.2634 56.7889 29.8378C56.6371 29.4122 56.4025 28.8536 56.2783 28.6009C56.1541 28.3482 56.0299 27.7895 56.0023 27.3639C55.9471 26.6856 55.9056 26.6057 55.6296 26.6057ZM44.7961 23.9722C44.6581 23.9457 44.4235 24.2515 44.1337 24.7835C43.8991 25.2489 43.6921 25.6879 43.692 25.7412C43.6928 25.8475 45.6095 25.7412 45.7345 25.6216C45.8587 25.4886 45.0031 24.0121 44.7961 23.9722ZM101.006 23.4136C101.089 23.1077 100.993 23.0545 100.868 23.3471C100.827 23.4668 100.827 23.5866 100.855 23.6265C100.896 23.6662 100.965 23.5731 101.006 23.4136ZM99.9436 23.2806C99.9022 23.2806 99.8333 23.3338 99.7919 23.4136C99.7505 23.4801 99.7782 23.5466 99.8471 23.5466C99.9299 23.5466 99.9989 23.48 99.9989 23.4136C99.9989 23.3338 99.9712 23.2806 99.9436 23.2806ZM101.669 22.7485C101.6 22.7486 101.517 22.8417 101.476 22.9348C101.42 23.0677 101.462 23.1076 101.6 23.0544C101.807 22.9746 101.862 22.7485 101.669 22.7485ZM-0.746267 22.6155C-0.815262 22.6156 -0.884274 22.6688 -0.884274 22.7485C-0.884229 22.815 -0.81524 22.8815 -0.746267 22.8816C-0.66349 22.8816 -0.608295 22.815 -0.608259 22.7485C-0.608259 22.6687 -0.663463 22.6155 -0.746267 22.6155ZM63.841 16.0982C64.5587 15.1672 64.5725 15.0341 63.8687 15.3134C62.1712 15.9651 57.4791 17.9203 57.3823 18.0268C57.2861 18.1205 58.0999 20.1148 58.2655 20.1815C58.8589 20.3943 62.6541 17.6278 63.841 16.0982Z" fill="white"/>
<path d="M85.5772 51.917C85.6876 51.917 85.7842 52.0101 85.7842 52.1032C85.7841 52.2096 85.7151 52.2761 85.6185 52.2495C85.3702 52.1697 85.3288 51.917 85.5772 51.917Z" fill="white"/>
<path d="M4.38762 50.68C4.77403 50.68 5.06389 50.7067 5.03628 50.7333C4.9254 50.853 3.09035 51.212 2.66254 51.212C2.33138 51.212 2.27615 51.1721 2.4279 51.079C2.5383 51.0125 2.8695 50.946 3.15931 50.946C3.43523 50.946 3.66981 50.8795 3.66996 50.813C3.66996 50.7332 3.98742 50.68 4.38762 50.68Z" fill="white"/>
<path d="M5.25704 49.3632C5.87807 49.2568 5.94708 49.2702 5.80907 49.4697C5.76756 49.5495 5.57433 49.616 5.4088 49.616C5.2294 49.616 4.99479 49.749 4.8844 49.9086C4.69122 50.1878 4.53929 50.2145 3.46295 50.2411C2.52458 50.2677 2.2209 50.3342 2.08288 50.4938C1.97247 50.64 1.79305 50.6933 1.55848 50.6534C1.35153 50.6135 1.18592 50.6268 1.18583 50.6933C1.18576 50.9592 0.744288 51.2252 0.551054 51.0658C0.275056 50.853 0.316408 50.547 0.606176 50.547C0.744157 50.547 0.992595 50.4539 1.1582 50.3342C1.32381 50.2278 1.46185 50.1746 1.46185 50.2145C1.46201 50.2542 1.61383 50.1479 1.79312 49.9751C2.08292 49.6958 2.31756 49.6425 3.42158 49.5627C4.12538 49.5095 4.9534 49.4164 5.25704 49.3632Z" fill="white"/>
<path d="M79.0771 50.9593C79.2288 50.946 79.3116 50.9859 79.2565 51.0258C79.215 51.0656 79.0908 51.079 78.9942 51.0392C78.8838 50.9993 78.9253 50.9593 79.0771 50.9593Z" fill="white"/>
<path d="M5.3813 50.6933C5.53303 50.68 5.61579 50.7199 5.56068 50.7598C5.51924 50.7996 5.39499 50.813 5.29842 50.7731C5.18804 50.7332 5.22952 50.6933 5.3813 50.6933Z" fill="white"/>
<path d="M0.0955226 50.414C0.164515 50.414 0.219765 50.4672 0.219783 50.5204C0.219741 50.6932 0.0541267 50.813 -0.0838601 50.7333C-0.221848 50.6535 -0.0976419 50.4141 0.0955226 50.414Z" fill="white"/>
<path d="M6.3611 49.749C6.49909 49.749 6.5681 49.8819 6.56811 50.0947C6.5681 50.3873 6.54048 50.4273 6.3611 50.281C6.25074 50.1879 6.15417 50.0284 6.15409 49.9352C6.15409 49.8288 6.2507 49.749 6.3611 49.749Z" fill="white"/>
<path d="M6.37485 49.2169C6.71984 49.2302 6.7475 49.2435 6.52673 49.3632C6.33357 49.4696 6.2231 49.4696 6.11271 49.3632C6.00234 49.2568 6.07131 49.2169 6.37485 49.2169Z" fill="white"/>
<path d="M12.9164 49.1504C12.9164 49.0307 12.9854 48.951 13.0682 48.9776C13.151 49.0042 13.2201 49.0839 13.2201 49.1504C13.22 49.2169 13.151 49.2967 13.0682 49.3233C12.9854 49.3498 12.9165 49.2701 12.9164 49.1504Z" fill="white"/>
<path d="M22.7149 47.5544C22.8667 47.3814 23.405 47.2618 23.405 47.4081C23.4044 47.4348 23.2115 47.5279 22.9772 47.6076C22.6047 47.7273 22.5632 47.7272 22.7149 47.5544Z" fill="white"/>
</g>
<path d="M74.2212 85.3251C71.6712 85.3251 69.8462 83.9501 69.8462 81.4251C69.8462 78.6251 72.0712 77.7251 74.7462 77.4001C77.1462 77.1001 77.9962 76.8501 77.9962 75.9751C77.9962 75.1501 77.4712 74.6001 76.2462 74.6001C74.9462 74.6001 74.2962 75.1751 74.1712 76.2501H70.4212C70.4962 73.8501 72.3712 71.8501 76.2212 71.8501C78.1462 71.8501 79.4462 72.2001 80.3712 72.9001C81.4712 73.7001 81.9962 74.9501 81.9962 76.5501V83.0001C81.9962 84.0251 82.0712 84.6001 82.4462 84.8251V85.0001H78.4962C78.2962 84.7251 78.1712 84.2501 78.0712 83.5751H78.0212C77.2462 84.6501 76.1462 85.3251 74.2212 85.3251ZM75.5212 82.7251C77.0462 82.7251 78.0962 81.8251 78.0962 80.4251V78.9001C77.5712 79.1751 76.8212 79.3751 75.9962 79.5751C74.4212 79.9501 73.7712 80.3251 73.7712 81.3001C73.7712 82.3251 74.5212 82.7251 75.5212 82.7251Z" fill="white"/>
<path d="M56.6884 85.0002V72.2002H60.6134V73.9502H60.6884C61.6634 72.5502 62.8384 71.8252 64.6384 71.8252C67.4384 71.8252 69.0884 73.8252 69.0884 76.6752V85.0002H65.0134V77.5002C65.0134 76.1252 64.3384 75.2252 63.0134 75.2252C61.6384 75.2252 60.7634 76.3252 60.7634 77.9252V85.0002H56.6884Z" fill="white"/>
<path d="M49.8147 85.4001C45.7147 85.4001 43.0147 82.5001 43.0147 78.6251C43.0147 74.7501 45.6397 71.8501 49.7147 71.8501C53.2147 71.8501 55.3897 73.8751 55.7897 76.7501H51.8647C51.5897 75.5751 50.9397 74.8501 49.7647 74.8501C47.9897 74.8501 47.1397 76.3001 47.1397 78.6251C47.1397 80.9251 47.9897 82.3501 49.7647 82.3501C51.0647 82.3501 51.8147 81.6251 51.9897 80.1501H55.8897C55.7647 83.1001 53.4647 85.4001 49.8147 85.4001Z" fill="white"/>
<path d="M36.3505 85.3752C32.1255 85.3752 29.5255 82.4752 29.5255 78.5752C29.5255 74.7502 32.2005 71.8252 36.1005 71.8252C37.9255 71.8252 39.3755 72.4252 40.4755 73.4252C42.0005 74.8252 42.7505 77.0502 42.7255 79.6502H33.5255C33.8005 81.3752 34.7005 82.4502 36.4005 82.4502C37.4755 82.4502 38.1505 81.9752 38.5255 81.1752H42.5005C42.2255 82.3502 41.4755 83.4252 40.3505 84.2002C39.2755 84.9752 37.9755 85.3752 36.3505 85.3752ZM33.5505 77.2252H38.6005C38.4255 75.7002 37.5005 74.7252 36.1755 74.7252C34.6005 74.7252 33.8255 75.7002 33.5505 77.2252Z" fill="white"/>
<path d="M21.3534 85.0002L16.9284 72.2002H21.1284L22.8784 77.9752C23.0534 78.6502 23.2534 79.2752 23.3784 79.7502C23.4534 80.0252 23.5034 80.3002 23.5784 80.5502H23.6284C23.7034 80.3002 23.7534 80.0252 23.8284 79.7502C23.9534 79.2752 24.1284 78.6502 24.3284 77.9752L26.1034 72.2002H30.1784L25.7534 85.0002H21.3534Z" fill="white"/>
</g>
<defs>
<clipPath id="clip0_7_705">
<rect width="100" height="100" fill="white"/>
</clipPath>
</defs>
</svg>
